PathFileType	4	(X/Y/Z)	SUBJ36_3_walk_RCNL2025.trc
DataRate	CameraRate	NumFrames	NumMarkers	Units	OrigDataRate	OrigDataStartFrame	OrigNumFrames
100	100	8	25	mm	100	173	344
Frame#	Time	R_Shoulder			L_Shoulder			C7			J_Notch			R_Elbow			L_Elbow			R_Wrist			L_Wrist			R_Asis			L_Asis			Sacral			Thoracic			Sternum			R_Thigh_Lateral			R_Knee_Lateral			R_Shank_Lateral			R_Ankle_Lateral			R_Heel			R_Toe			L_Thigh_Lateral			L_Knee_Lateral			L_Shank_Lateral			L_Ankle_Lateral			L_Heel			L_Toe		
		X1	Y1	Z1	X2	Y2	Z2	X3	Y3	Z3	X4	Y4	Z4	X5	Y5	Z5	X6	Y6	Z6	X7	Y7	Z7	X8	Y8	Z8	X9	Y9	Z9	X10	Y10	Z10	X11	Y11	Z11	X12	Y12	Z12	X13	Y13	Z13	X14	Y14	Z14	X15	Y15	Z15	X16	Y16	Z16	X17	Y17	Z17	X18	Y18	Z18	X19	Y19	Z19	X20	Y20	Z20	X21	Y21	Z21	X22	Y22	Z22	X23	Y23	Z23	X24	Y24	Z24	X25	Y25	Z25
173	1.72000000	-505.449310	1354.639404	273.196381	-518.446228	1316.545654	-70.941986	-573.994202	1411.975342	108.981102	-441.103210	1298.838501	109.985687	-590.629944	1046.756592	359.279938	-578.494812	1005.136780	-114.207565	-537.990753	812.942993	390.929276	-474.530151	793.811890	-110.431786	-458.381317	908.788818	235.751419	-454.684021	914.356384	6.370093	-677.628601	905.432373	120.252426	-658.109192	1157.707275	122.214912	-411.335297	1119.239014	127.307648	-475.860748	502.119812	297.414062	-459.875244	449.923126	256.241333	-621.443604	341.103027	280.722412	-736.073364	218.760345	207.733200	-777.036194	232.796646	152.349442	-685.388855	106.284973	203.437057	-501.507751	515.246338	-59.592796	-505.936646	443.587433	15.770067	-551.668396	234.898697	-5.582485	-574.190613	71.925316	73.753052	-610.178223	43.582603	130.618713	-447.792633	46.482582	79.549301
174	1.73000000	-495.486542	1355.266846	273.767548	-506.799652	1317.803955	-70.450951	-563.224915	1412.705566	109.350510	-430.414978	1299.459473	110.719345	-582.382019	1047.606323	359.281647	-564.947327	1006.126343	-114.693390	-531.222168	813.671021	392.207993	-458.035675	796.093994	-109.033257	-447.717468	910.359131	235.374985	-444.611725	914.555725	5.893085	-667.315674	905.669739	121.196762	-647.652405	1158.388672	121.350891	-400.892395	1119.849243	127.939529	-454.548645	505.436829	298.847198	-438.373688	453.318787	257.019043	-597.241394	341.026367	281.768646	-707.577881	213.547852	209.778091	-749.890503	225.242935	154.745712	-650.997131	104.466202	206.461212	-498.736053	515.274780	-59.293648	-504.013611	443.596283	16.120684	-550.967407	235.098938	-5.418511	-573.901733	72.050468	73.909088	-610.006287	43.822083	130.698166	-447.642700	46.392067	79.530762
175	1.74000000	-485.529022	1355.731079	274.309662	-495.229797	1318.882080	-69.983498	-552.479004	1413.249878	109.713692	-419.734863	1299.930542	111.412422	-574.037231	1048.292114	359.282715	-551.476807	1006.937683	-115.128822	-524.318192	814.246552	393.434052	-441.667206	798.255035	-107.584126	-437.113098	911.750122	235.068222	-434.501617	914.504395	5.504966	-656.967224	905.787415	122.202522	-637.174011	1158.889038	120.556206	-390.419708	1120.313110	128.481430	-433.608948	508.802917	300.181335	-417.382294	456.678406	257.715088	-573.094543	340.058472	282.899384	-678.483459	207.269028	211.874420	-721.984131	216.497391	157.212280	-615.886353	102.005951	209.351791	-495.961395	515.375183	-58.968124	-502.138611	443.640900	16.483686	-550.369019	235.328781	-5.273077	-573.636536	72.212868	74.038925	-609.862000	44.128189	130.729141	-447.490021	46.299137	79.506912
176	1.75000000	-475.557281	1356.021240	274.826782	-483.727264	1319.756836	-69.535110	-541.745667	1413.600464	110.075279	-409.051056	1300.235229	112.068741	-565.575928	1048.803101	359.285522	-538.079407	1007.547119	-115.504044	-517.261429	814.657288	394.602859	-425.445816	800.283325	-106.092506	-426.577881	912.962402	234.854034	-424.347076	914.232422	5.224562	-646.589600	905.785339	123.241776	-626.667358	1159.198608	119.848274	-379.915466	1120.612793	128.948517	-413.111725	512.151672	301.393555	-396.929413	459.927399	258.348175	-548.949341	338.107330	284.140656	-648.766907	200.036713	214.012222	-693.242249	206.682434	159.711761	-580.173340	98.983627	212.176437	-493.140778	515.590027	-58.645386	-500.329742	443.730194	16.830078	-549.838989	235.579224	-5.152180	-573.421570	72.428230	74.130608	-609.745178	44.506248	130.707474	-447.337067	46.206100	79.474113
177	1.76000000	-465.549896	1356.130005	275.324921	-472.281921	1320.410522	-69.099503	-531.015320	1413.752441	110.440643	-398.352997	1300.358398	112.693275	-556.980225	1049.131592	359.295502	-524.758118	1007.938965	-115.809029	-510.033035	814.894897	395.713882	-409.378036	802.165802	-104.566753	-416.104462	913.996155	234.753922	-414.147980	913.775757	5.065143	-636.187500	905.654968	124.289787	-616.132263	1159.309448	119.240097	-369.380768	1120.729736	129.359177	-393.124878	515.419373	302.470520	-377.048431	462.988617	258.932892	-524.729980	335.110321	285.519714	-618.401550	191.972229	216.190552	-663.608032	195.948471	162.226624	-543.955811	95.479233	214.986160	-490.303894	515.936768	-58.346905	-498.612122	443.876984	17.140398	-549.350464	235.855316	-5.057425	-573.272583	72.713417	74.179718	-609.646912	44.953709	130.650681	-447.183746	46.117580	79.428177
178	1.77000000	-455.486023	1356.051880	275.810455	-460.884247	1320.831787	-68.669098	-520.280701	1413.702637	110.815094	-387.632324	1300.287720	113.291115	-548.233582	1049.271118	359.320831	-511.522095	1008.106018	-116.033203	-502.612686	814.952606	396.770477	-393.463974	803.890961	-103.014076	-405.677887	914.844666	234.784363	-403.905701	913.170959	5.032225	-625.761047	905.381409	125.325775	-605.573486	1159.216919	118.740410	-358.818481	1120.647583	129.732437	-373.716400	518.542419	303.408020	-357.776642	465.784546	259.481079	-500.347137	331.058655	287.062195	-587.360901	183.204956	218.417114	-633.048584	184.464844	164.758957	-507.303070	91.582390	217.807449	-487.528625	516.414673	-58.086842	-497.003479	444.099884	17.405920	-548.882263	236.174652	-4.984946	-573.185608	73.081070	74.193123	-609.568359	45.477047	130.589355	-447.027466	46.040165	79.364426
179	1.78000000	-445.346588	1355.781494	276.289185	-449.527191	1321.012695	-68.236015	-509.535370	1413.448120	111.202690	-376.883575	1300.013672	113.866989	-539.321838	1049.215942	359.369690	-498.380646	1008.044556	-116.166077	-494.980209	814.823578	397.778336	-377.702347	805.448730	-101.439751	-395.281250	915.491760	234.952011	-393.619385	912.451782	5.122083	-615.307495	904.946472	126.333916	-594.997437	1158.920776	118.355476	-348.232330	1120.353149	130.085785	-354.957977	521.453613	304.209106	-339.153748	468.240051	260.004120	-475.709656	326.010681	288.785736	-555.624634	173.876907	220.706360	-601.558350	172.412018	167.325089	-470.256256	87.400887	220.638992	-484.908875	517.015930	-57.871395	-495.501312	444.422485	17.627810	-548.419006	236.563110	-4.925913	-573.138855	73.538513	74.189087	-609.521362	46.099113	130.557510	-446.863953	45.979462	79.278847
180	1.79000000	-435.114166	1355.315186	276.766144	-438.207001	1320.948486	-67.793030	-498.773010	1412.986206	111.606308	-366.103302	1299.530762	114.425919	-530.233643	1048.960693	359.448914	-485.340088	1007.751099	-116.198822	-487.118134	814.500946	398.745346	-362.092621	806.828308	-99.846478	-384.896790	915.914490	235.252304	-383.285583	911.646179	5.323679	-604.822876	904.333313	127.304291	-584.409363	1158.426392	118.092346	-337.626282	1119.838623	130.436295	-336.928955	524.080750	304.882416	-321.221802	470.285095	260.514740	-450.738892	320.091705	290.691681	-523.185242	164.149872	223.077469	-569.159607	159.979599	169.949020	-432.837097	83.065323	223.451279	-482.520203	517.732056	-57.694553	-494.076294	444.870026	17.815931	-547.952271	237.051880	-4.868296	-573.101440	74.092072	74.192459	-609.504944	46.846836	130.582397	-446.688751	45.937485	79.170425
